<svg width="37" height="37" xmlns="http://www.w3.org/2000/svg">

 <g>
  <title>background</title>
  <rect fill="none" id="canvas_background" height="39" width="39" y="-1" x="-1"/>
 </g>
 <g>
  <title>Layer 1</title>
  <path stroke="null" id="svg_1" d="m35.624224,2.577104c-0.679263,0.270245 -34.241871,13.609891 -34.902551,13.872554c-0.561044,0.222974 -0.685984,0.769261 -0.019769,1.06983c0.793527,0.358542 7.503914,3.39099 7.503914,3.39099l-0.000791,0l4.449209,2.01078c0,0 21.424447,-17.745168 21.715842,-17.986426c0.291,-0.241704 0.628259,0.211825 0.41594,0.470921c-0.212319,0.260434 -15.560569,18.982674 -15.560569,18.982674c-0.000791,0.000446 -0.000791,0.000892 -0.000791,0.001338l-0.89514,1.122451l1.183767,0.718868l0,0.000446c0,0 9.192977,5.581041 9.848121,5.978826c0.573696,0.348285 1.320569,0.058865 1.486233,-0.746517c0.195318,-0.94987 5.624278,-27.339296 5.74566,-27.926163c0.156966,-0.764801 -0.289813,-1.230371 -0.969076,-0.960572zm-23.010711,32.391888c0,0.550746 0.273998,0.703706 0.654354,0.313947c0.495806,-0.507043 5.632186,-5.706352 5.632186,-5.706352l-6.286539,-3.668815l0,9.06122z"/>
  <g id="svg_2"/>
  <g id="svg_3"/>
  <g id="svg_4"/>
  <g id="svg_5"/>
  <g id="svg_6"/>
  <g id="svg_7"/>
  <g id="svg_8"/>
  <g id="svg_9"/>
  <g id="svg_10"/>
  <g id="svg_11"/>
  <g id="svg_12"/>
  <g id="svg_13"/>
  <g id="svg_14"/>
  <g id="svg_15"/>
  <g id="svg_16"/>
 </g>
</svg>