<svg width="37" height="37" xmlns="http://www.w3.org/2000/svg">

 <g>
  <title>background</title>
  <rect fill="none" id="canvas_background" height="39" width="39" y="-1" x="-1"/>
 </g>
 <g>
  <title>Layer 1</title>
  <g stroke="null" id="svg_1">
   <path stroke="null" id="svg_2" d="m9.84763,4.510812c0,2.077162 -1.414271,3.759605 -3.741474,3.759605c-2.189164,0 -3.603434,-1.682052 -3.603434,-3.759605c0,-2.127186 1.460043,-3.759996 3.69498,-3.759996c2.235658,0 3.604876,1.63281 3.649928,3.759996zm-7.162538,30.919822l0,-24.191614l6.935116,0l0,24.191614l-6.935116,0z"/>
   <path stroke="null" id="svg_3" d="m13.770032,18.956372c0,-3.017454 -0.090825,-5.540142 -0.181649,-7.717352l6.021462,0l0.320409,3.364104l0.136597,0c0.912212,-1.583958 3.147869,-3.908895 6.889343,-3.908895c4.56214,0 7.983925,3.315253 7.983925,10.438571l0,14.297833l-6.935116,0l0,-13.406783c0,-3.117111 -1.003757,-5.243516 -3.513331,-5.243516c-1.915969,0 -3.055963,1.434278 -3.557662,2.819704c-0.183091,0.494376 -0.228864,1.187285 -0.228864,1.880193l0,13.950793l-6.935116,0l0,-16.474653z"/>
  </g>
  <g id="svg_4"/>
  <g id="svg_5"/>
  <g id="svg_6"/>
  <g id="svg_7"/>
  <g id="svg_8"/>
  <g id="svg_9"/>
  <g id="svg_10"/>
  <g id="svg_11"/>
  <g id="svg_12"/>
  <g id="svg_13"/>
  <g id="svg_14"/>
  <g id="svg_15"/>
  <g id="svg_16"/>
  <g id="svg_17"/>
  <g id="svg_18"/>
 </g>
</svg>